<?xml version="1.0" encoding="UTF-8" standalone="no"?>
<!DOCTYPE svg PUBLIC "-//W3C//DTD SVG 1.1//EN"
 "http://www.w3.org/Graphics/SVG/1.1/DTD/svg11.dtd">
<!-- Generated by graphviz version 2.43.0 (0)
 -->
<!-- Title: G Pages: 1 -->
<svg width="974pt" height="606pt"
 viewBox="0.00 0.00 974.00 606.00" xmlns="http://www.w3.org/2000/svg" xmlns:xlink="http://www.w3.org/1999/xlink">
<g id="graph0" class="graph" transform="scale(1 1) rotate(0) translate(4 602)">
<title>G</title>
<polygon fill="white" stroke="transparent" points="-4,4 -4,-602 970,-602 970,4 -4,4"/>
<text text-anchor="start" x="433" y="-22.8" font-family="DejaVu Sans" font-size="14.00"> Plan &#45; Started</text>
<text text-anchor="start" x="239.5" y="-7.8" font-family="DejaVu Sans" font-size="14.00">Plan built at 2023&#45;02&#45;10 11:44:14.903134Definition pathes: [demo1] </text>
<g id="clust1" class="cluster">
<title>cluster_gInitChain</title>
<path fill="none" stroke="lightgreen" d="M258,-458C258,-458 426,-458 426,-458 432,-458 438,-464 438,-470 438,-470 438,-578 438,-578 438,-584 432,-590 426,-590 426,-590 258,-590 258,-590 252,-590 246,-584 246,-578 246,-578 246,-470 246,-470 246,-464 252,-458 258,-458"/>
</g>
<g id="clust2" class="cluster">
<title>cluster_gReorgMariaDB</title>
<path fill="none" stroke="lightskyblue" d="M462,-218C462,-218 696,-218 696,-218 702,-218 708,-224 708,-230 708,-230 708,-422 708,-422 708,-428 702,-434 696,-434 696,-434 462,-434 462,-434 456,-434 450,-428 450,-422 450,-422 450,-230 450,-230 450,-224 456,-218 462,-218"/>
</g>
<g id="clust3" class="cluster">
<title>cluster_gReorgOldBDs</title>
<path fill="none" stroke="lightskyblue" d="M20,-46C20,-46 222,-46 222,-46 228,-46 234,-52 234,-58 234,-58 234,-422 234,-422 234,-428 228,-434 222,-434 222,-434 20,-434 20,-434 14,-434 8,-428 8,-422 8,-422 8,-58 8,-58 8,-52 14,-46 20,-46"/>
</g>
<g id="clust4" class="cluster">
<title>cluster_gBackupDBs</title>
<path fill="none" stroke="lightskyblue" d="M254,-126C254,-126 430,-126 430,-126 436,-126 442,-132 442,-138 442,-138 442,-342 442,-342 442,-348 436,-354 430,-354 430,-354 254,-354 254,-354 248,-354 242,-348 242,-342 242,-342 242,-138 242,-138 242,-132 248,-126 254,-126"/>
</g>
<g id="clust5" class="cluster">
<title>cluster_gCompileThings</title>
<path fill="none" stroke="orangered" d="M728,-378C728,-378 946,-378 946,-378 952,-378 958,-384 958,-390 958,-390 958,-578 958,-578 958,-584 952,-590 946,-590 946,-590 728,-590 728,-590 722,-590 716,-584 716,-578 716,-578 716,-390 716,-390 716,-384 722,-378 728,-378"/>
</g>
<g id="clust6" class="cluster">
<title>cluster_gRollbackThings</title>
<path fill="none" stroke="lightgreen" d="M740,-132C740,-132 934,-132 934,-132 940,-132 946,-138 946,-144 946,-144 946,-342 946,-342 946,-348 940,-354 934,-354 934,-354 740,-354 740,-354 734,-354 728,-348 728,-342 728,-342 728,-144 728,-144 728,-138 734,-132 740,-132"/>
</g>
<!-- InitChain -->
<g id="node1" class="node">
<title>InitChain</title>
<path fill="none" stroke="black" d="M381.5,-582C381.5,-582 302.5,-582 302.5,-582 296.5,-582 290.5,-576 290.5,-570 290.5,-570 290.5,-558 290.5,-558 290.5,-552 296.5,-546 302.5,-546 302.5,-546 381.5,-546 381.5,-546 387.5,-546 393.5,-552 393.5,-558 393.5,-558 393.5,-570 393.5,-570 393.5,-576 387.5,-582 381.5,-582"/>
<text text-anchor="start" x="298.5" y="-567.6" font-family="DejaVu Sans" font-size="13.00"> </text>
<text text-anchor="start" x="303.5" y="-567.6" font-family="DejaVu Sans" font-weight="bold" font-size="13.00">InitChain</text>
<text text-anchor="start" x="369.5" y="-567.6" font-family="DejaVu Sans" font-size="13.00"> ✔</text>
<text text-anchor="start" x="306" y="-554.6" font-family="DejaVu Sans" font-size="13.00" fill="darkslategrey">⏰11:45:40</text>
</g>
<!-- InitChain.UsersCleanUp -->
<g id="node2" class="node">
<title>InitChain.UsersCleanUp</title>
<path fill="lightgreen" stroke="lightgreen" d="M418,-510C418,-510 266,-510 266,-510 260,-510 254,-504 254,-498 254,-498 254,-478 254,-478 254,-472 260,-466 266,-466 266,-466 418,-466 418,-466 424,-466 430,-472 430,-478 430,-478 430,-498 430,-498 430,-504 424,-510 418,-510"/>
<text text-anchor="start" x="337" y="-497.4" font-family="DejaVu Sans" font-size="12.00">✔</text>
<text text-anchor="start" x="262" y="-485.4" font-family="DejaVu Sans" font-weight="bold" font-size="12.00">InitChain.UsersCleanUp</text>
</g>
<!-- InitChain&#45;&gt;InitChain.UsersCleanUp -->
<!-- ReorgMariaDB -->
<g id="node3" class="node">
<title>ReorgMariaDB</title>
<path fill="none" stroke="black" d="M613,-426C613,-426 495,-426 495,-426 489,-426 483,-420 483,-414 483,-414 483,-402 483,-402 483,-396 489,-390 495,-390 495,-390 613,-390 613,-390 619,-390 625,-396 625,-402 625,-402 625,-414 625,-414 625,-420 619,-426 613,-426"/>
<text text-anchor="start" x="491" y="-411.6" font-family="DejaVu Sans" font-size="13.00"> </text>
<text text-anchor="start" x="496" y="-411.6" font-family="DejaVu Sans" font-weight="bold" font-size="13.00">ReorgMariaDB</text>
<text text-anchor="start" x="602" y="-411.6" font-family="DejaVu Sans" font-size="13.00"> ▶</text>
<text text-anchor="start" x="518" y="-398.6" font-family="DejaVu Sans" font-size="13.00" fill="darkslategrey">⏰InitChain</text>
</g>
<!-- InitChain.UsersCleanUp&#45;&gt;ReorgMariaDB -->
<g id="edge4" class="edge">
<title>InitChain.UsersCleanUp&#45;&gt;ReorgMariaDB</title>
<path fill="none" stroke="black" d="M399.09,-465.99C429.74,-454.72 467.39,-440.87 497.89,-429.64"/>
<polygon fill="black" stroke="black" points="499.35,-432.84 507.52,-426.1 496.93,-426.27 499.35,-432.84"/>
</g>
<!-- ReorgOldBDs -->
<g id="node6" class="node">
<title>ReorgOldBDs</title>
<path fill="none" stroke="black" d="M196.5,-426C196.5,-426 87.5,-426 87.5,-426 81.5,-426 75.5,-420 75.5,-414 75.5,-414 75.5,-402 75.5,-402 75.5,-396 81.5,-390 87.5,-390 87.5,-390 196.5,-390 196.5,-390 202.5,-390 208.5,-396 208.5,-402 208.5,-402 208.5,-414 208.5,-414 208.5,-420 202.5,-426 196.5,-426"/>
<text text-anchor="start" x="83.5" y="-411.6" font-family="DejaVu Sans" font-size="13.00"> </text>
<text text-anchor="start" x="88.5" y="-411.6" font-family="DejaVu Sans" font-weight="bold" font-size="13.00">ReorgOldBDs</text>
<text text-anchor="start" x="185.5" y="-411.6" font-family="DejaVu Sans" font-size="13.00"> ▶</text>
<text text-anchor="start" x="106" y="-398.6" font-family="DejaVu Sans" font-size="13.00" fill="darkslategrey">⏰InitChain</text>
</g>
<!-- InitChain.UsersCleanUp&#45;&gt;ReorgOldBDs -->
<g id="edge9" class="edge">
<title>InitChain.UsersCleanUp&#45;&gt;ReorgOldBDs</title>
<path fill="none" stroke="black" d="M288.14,-465.99C259.35,-454.77 224.02,-440.99 195.31,-429.79"/>
<polygon fill="black" stroke="black" points="196.43,-426.47 185.84,-426.1 193.89,-432.99 196.43,-426.47"/>
</g>
<!-- BackupDBs -->
<g id="node11" class="node">
<title>BackupDBs</title>
<path fill="none" stroke="black" d="M389,-346C389,-346 295,-346 295,-346 289,-346 283,-340 283,-334 283,-334 283,-322 283,-322 283,-316 289,-310 295,-310 295,-310 389,-310 389,-310 395,-310 401,-316 401,-322 401,-322 401,-334 401,-334 401,-340 395,-346 389,-346"/>
<text text-anchor="start" x="291" y="-331.6" font-family="DejaVu Sans" font-size="13.00"> </text>
<text text-anchor="start" x="296" y="-331.6" font-family="DejaVu Sans" font-weight="bold" font-size="13.00">BackupDBs</text>
<text text-anchor="start" x="378" y="-331.6" font-family="DejaVu Sans" font-size="13.00"> ▶</text>
<text text-anchor="start" x="306" y="-318.6" font-family="DejaVu Sans" font-size="13.00" fill="darkslategrey">⏰InitChain</text>
</g>
<!-- InitChain.UsersCleanUp&#45;&gt;BackupDBs -->
<g id="edge13" class="edge">
<title>InitChain.UsersCleanUp&#45;&gt;BackupDBs</title>
<path fill="none" stroke="black" d="M342,-465.69C342,-437.36 342,-387.26 342,-356.22"/>
<polygon fill="black" stroke="black" points="345.5,-356.11 342,-346.11 338.5,-356.11 345.5,-356.11"/>
</g>
<!-- ReorgMariaDB.LogrotateMariaDB -->
<g id="node4" class="node">
<title>ReorgMariaDB.LogrotateMariaDB</title>
<path fill="lightskyblue" stroke="lightskyblue" d="M688,-350C688,-350 470,-350 470,-350 464,-350 458,-344 458,-338 458,-338 458,-318 458,-318 458,-312 464,-306 470,-306 470,-306 688,-306 688,-306 694,-306 700,-312 700,-318 700,-318 700,-338 700,-338 700,-344 694,-350 688,-350"/>
<text text-anchor="start" x="574" y="-337.4" font-family="DejaVu Sans" font-size="12.00">▶</text>
<text text-anchor="start" x="466" y="-325.4" font-family="DejaVu Sans" font-weight="bold" font-size="12.00">ReorgMariaDB.LogrotateMariaDB</text>
</g>
<!-- ReorgMariaDB&#45;&gt;ReorgMariaDB.LogrotateMariaDB -->
<!-- ReorgMariaDB.ReorgMariaDB -->
<g id="node5" class="node">
<title>ReorgMariaDB.ReorgMariaDB</title>
<path fill="lightgrey" stroke="lightgrey" d="M667.5,-270C667.5,-270 476.5,-270 476.5,-270 470.5,-270 464.5,-264 464.5,-258 464.5,-258 464.5,-238 464.5,-238 464.5,-232 470.5,-226 476.5,-226 476.5,-226 667.5,-226 667.5,-226 673.5,-226 679.5,-232 679.5,-238 679.5,-238 679.5,-258 679.5,-258 679.5,-264 673.5,-270 667.5,-270"/>
<text text-anchor="start" x="565.5" y="-257.4" font-family="DejaVu Sans" font-size="12.00">✨</text>
<text text-anchor="start" x="472.5" y="-245.4" font-family="DejaVu Sans" font-weight="bold" font-size="12.00">ReorgMariaDB.ReorgMariaDB</text>
</g>
<!-- ReorgMariaDB.LogrotateMariaDB&#45;&gt;ReorgMariaDB.ReorgMariaDB -->
<g id="edge3" class="edge">
<title>ReorgMariaDB.LogrotateMariaDB&#45;&gt;ReorgMariaDB.ReorgMariaDB</title>
<path fill="none" stroke="black" d="M577.09,-305.69C576.38,-297.8 575.56,-288.68 574.79,-280.1"/>
<polygon fill="black" stroke="black" points="578.27,-279.67 573.89,-270.02 571.29,-280.29 578.27,-279.67"/>
</g>
<!-- BackupDBs.BackupMaria -->
<g id="node13" class="node">
<title>BackupDBs.BackupMaria</title>
<path fill="lightgrey" stroke="lightgrey" d="M421.5,-190C421.5,-190 262.5,-190 262.5,-190 256.5,-190 250.5,-184 250.5,-178 250.5,-178 250.5,-146 250.5,-146 250.5,-140 256.5,-134 262.5,-134 262.5,-134 421.5,-134 421.5,-134 427.5,-134 433.5,-140 433.5,-146 433.5,-146 433.5,-178 433.5,-178 433.5,-184 427.5,-190 421.5,-190"/>
<text text-anchor="start" x="335.5" y="-177.4" font-family="DejaVu Sans" font-size="12.00">✨</text>
<text text-anchor="start" x="258.5" y="-165.4" font-family="DejaVu Sans" font-weight="bold" font-size="12.00">BackupDBs.BackupMaria</text>
<text text-anchor="start" x="293" y="-141.4" font-family="DejaVu Sans" font-size="12.00">⏰ReorgMariaDB</text>
</g>
<!-- ReorgMariaDB.ReorgMariaDB&#45;&gt;BackupDBs.BackupMaria -->
<g id="edge12" class="edge">
<title>ReorgMariaDB.ReorgMariaDB&#45;&gt;BackupDBs.BackupMaria</title>
<path fill="none" stroke="black" d="M514.26,-225.91C487.48,-216.13 455.15,-204.32 425.76,-193.59"/>
<polygon fill="black" stroke="black" points="426.92,-190.29 416.33,-190.15 424.52,-196.86 426.92,-190.29"/>
</g>
<!-- ReorgOldBDs.CloseIndices -->
<g id="node7" class="node">
<title>ReorgOldBDs.CloseIndices</title>
<path fill="lightskyblue" stroke="lightskyblue" d="M210,-350C210,-350 40,-350 40,-350 34,-350 28,-344 28,-338 28,-338 28,-318 28,-318 28,-312 34,-306 40,-306 40,-306 210,-306 210,-306 216,-306 222,-312 222,-318 222,-318 222,-338 222,-338 222,-344 216,-350 210,-350"/>
<text text-anchor="start" x="120" y="-337.4" font-family="DejaVu Sans" font-size="12.00">▶</text>
<text text-anchor="start" x="36" y="-325.4" font-family="DejaVu Sans" font-weight="bold" font-size="12.00">ReorgOldBDs.CloseIndices</text>
</g>
<!-- ReorgOldBDs&#45;&gt;ReorgOldBDs.CloseIndices -->
<!-- ReorgOldBDs.CloseListeners -->
<g id="node8" class="node">
<title>ReorgOldBDs.CloseListeners</title>
<path fill="lightgrey" stroke="lightgrey" d="M213.5,-270C213.5,-270 28.5,-270 28.5,-270 22.5,-270 16.5,-264 16.5,-258 16.5,-258 16.5,-238 16.5,-238 16.5,-232 22.5,-226 28.5,-226 28.5,-226 213.5,-226 213.5,-226 219.5,-226 225.5,-232 225.5,-238 225.5,-238 225.5,-258 225.5,-258 225.5,-264 219.5,-270 213.5,-270"/>
<text text-anchor="start" x="114.5" y="-257.4" font-family="DejaVu Sans" font-size="12.00">✨</text>
<text text-anchor="start" x="24.5" y="-245.4" font-family="DejaVu Sans" font-weight="bold" font-size="12.00">ReorgOldBDs.CloseListeners</text>
</g>
<!-- ReorgOldBDs.CloseIndices&#45;&gt;ReorgOldBDs.CloseListeners -->
<g id="edge6" class="edge">
<title>ReorgOldBDs.CloseIndices&#45;&gt;ReorgOldBDs.CloseListeners</title>
<path fill="none" stroke="black" d="M123.91,-305.69C123.5,-297.8 123.04,-288.68 122.6,-280.1"/>
<polygon fill="black" stroke="black" points="126.09,-279.83 122.08,-270.02 119.09,-280.18 126.09,-279.83"/>
</g>
<!-- ReorgOldBDs.ReorgADDBs -->
<g id="node9" class="node">
<title>ReorgOldBDs.ReorgADDBs</title>
<path fill="lightgrey" stroke="lightgrey" d="M206,-184C206,-184 36,-184 36,-184 30,-184 24,-178 24,-172 24,-172 24,-152 24,-152 24,-146 30,-140 36,-140 36,-140 206,-140 206,-140 212,-140 218,-146 218,-152 218,-152 218,-172 218,-172 218,-178 212,-184 206,-184"/>
<text text-anchor="start" x="114.5" y="-171.4" font-family="DejaVu Sans" font-size="12.00">✨</text>
<text text-anchor="start" x="32" y="-159.4" font-family="DejaVu Sans" font-weight="bold" font-size="12.00">ReorgOldBDs.ReorgADDBs</text>
</g>
<!-- ReorgOldBDs.CloseListeners&#45;&gt;ReorgOldBDs.ReorgADDBs -->
<g id="edge7" class="edge">
<title>ReorgOldBDs.CloseListeners&#45;&gt;ReorgOldBDs.ReorgADDBs</title>
<path fill="none" stroke="black" d="M121,-225.8C121,-216.25 121,-204.78 121,-194.27"/>
<polygon fill="black" stroke="black" points="124.5,-194.19 121,-184.19 117.5,-194.19 124.5,-194.19"/>
</g>
<!-- ReorgOldBDs.RestartEngine -->
<g id="node10" class="node">
<title>ReorgOldBDs.RestartEngine</title>
<path fill="lightgrey" stroke="lightgrey" d="M212,-98C212,-98 30,-98 30,-98 24,-98 18,-92 18,-86 18,-86 18,-66 18,-66 18,-60 24,-54 30,-54 30,-54 212,-54 212,-54 218,-54 224,-60 224,-66 224,-66 224,-86 224,-86 224,-92 218,-98 212,-98"/>
<text text-anchor="start" x="114.5" y="-85.4" font-family="DejaVu Sans" font-size="12.00">✨</text>
<text text-anchor="start" x="26" y="-73.4" font-family="DejaVu Sans" font-weight="bold" font-size="12.00">ReorgOldBDs.RestartEngine</text>
</g>
<!-- ReorgOldBDs.ReorgADDBs&#45;&gt;ReorgOldBDs.RestartEngine -->
<g id="edge8" class="edge">
<title>ReorgOldBDs.ReorgADDBs&#45;&gt;ReorgOldBDs.RestartEngine</title>
<path fill="none" stroke="black" d="M121,-139.8C121,-130.25 121,-118.78 121,-108.27"/>
<polygon fill="black" stroke="black" points="124.5,-108.19 121,-98.19 117.5,-108.19 124.5,-108.19"/>
</g>
<!-- BackupDBs.BackupPg -->
<g id="node12" class="node">
<title>BackupDBs.BackupPg</title>
<path fill="lightskyblue" stroke="lightskyblue" d="M411,-270C411,-270 273,-270 273,-270 267,-270 261,-264 261,-258 261,-258 261,-238 261,-238 261,-232 267,-226 273,-226 273,-226 411,-226 411,-226 417,-226 423,-232 423,-238 423,-238 423,-258 423,-258 423,-264 417,-270 411,-270"/>
<text text-anchor="start" x="337" y="-257.4" font-family="DejaVu Sans" font-size="12.00">▶</text>
<text text-anchor="start" x="269" y="-245.4" font-family="DejaVu Sans" font-weight="bold" font-size="12.00">BackupDBs.BackupPg</text>
</g>
<!-- BackupDBs&#45;&gt;BackupDBs.BackupPg -->
<!-- BackupDBs.BackupPg&#45;&gt;BackupDBs.BackupMaria -->
<g id="edge11" class="edge">
<title>BackupDBs.BackupPg&#45;&gt;BackupDBs.BackupMaria</title>
<path fill="none" stroke="black" d="M342,-225.8C342,-218.05 342,-209.03 342,-200.28"/>
<polygon fill="black" stroke="black" points="345.5,-200.24 342,-190.24 338.5,-200.24 345.5,-200.24"/>
</g>
<!-- CompileThings -->
<g id="node14" class="node">
<title>CompileThings</title>
<path fill="none" stroke="black" d="M898,-582C898,-582 776,-582 776,-582 770,-582 764,-576 764,-570 764,-570 764,-558 764,-558 764,-552 770,-546 776,-546 776,-546 898,-546 898,-546 904,-546 910,-552 910,-558 910,-558 910,-570 910,-570 910,-576 904,-582 898,-582"/>
<text text-anchor="start" x="772" y="-567.6" font-family="DejaVu Sans" font-size="13.00"> </text>
<text text-anchor="start" x="777" y="-567.6" font-family="DejaVu Sans" font-weight="bold" font-size="13.00">CompileThings</text>
<text text-anchor="start" x="885" y="-567.6" font-family="DejaVu Sans" font-size="13.00"> ☠</text>
<text text-anchor="start" x="801" y="-554.6" font-family="DejaVu Sans" font-size="13.00" fill="darkslategrey">⏰11:45:00</text>
</g>
<!-- CompileThings.GetNewRelease -->
<g id="node15" class="node">
<title>CompileThings.GetNewRelease</title>
<path fill="lightgreen" stroke="lightgreen" d="M938,-510C938,-510 736,-510 736,-510 730,-510 724,-504 724,-498 724,-498 724,-478 724,-478 724,-472 730,-466 736,-466 736,-466 938,-466 938,-466 944,-466 950,-472 950,-478 950,-478 950,-498 950,-498 950,-504 944,-510 938,-510"/>
<text text-anchor="start" x="832" y="-497.4" font-family="DejaVu Sans" font-size="12.00">✔</text>
<text text-anchor="start" x="732" y="-485.4" font-family="DejaVu Sans" font-weight="bold" font-size="12.00">CompileThings.GetNewRelease</text>
</g>
<!-- CompileThings&#45;&gt;CompileThings.GetNewRelease -->
<!-- CompileThings.Compile -->
<g id="node16" class="node">
<title>CompileThings.Compile</title>
<path fill="orangered" stroke="orangered" d="M911.5,-430C911.5,-430 762.5,-430 762.5,-430 756.5,-430 750.5,-424 750.5,-418 750.5,-418 750.5,-398 750.5,-398 750.5,-392 756.5,-386 762.5,-386 762.5,-386 911.5,-386 911.5,-386 917.5,-386 923.5,-392 923.5,-398 923.5,-398 923.5,-418 923.5,-418 923.5,-424 917.5,-430 911.5,-430"/>
<text text-anchor="start" x="831.5" y="-417.4" font-family="DejaVu Sans" font-size="12.00">☠</text>
<text text-anchor="start" x="758.5" y="-405.4" font-family="DejaVu Sans" font-weight="bold" font-size="12.00">CompileThings.Compile</text>
</g>
<!-- CompileThings.GetNewRelease&#45;&gt;CompileThings.Compile -->
<g id="edge15" class="edge">
<title>CompileThings.GetNewRelease&#45;&gt;CompileThings.Compile</title>
<path fill="none" stroke="black" d="M837,-465.69C837,-457.8 837,-448.68 837,-440.1"/>
<polygon fill="black" stroke="black" points="840.5,-440.02 837,-430.02 833.5,-440.02 840.5,-440.02"/>
</g>
<!-- RollbackThings -->
<g id="node17" class="node">
<title>RollbackThings</title>
<path fill="none" stroke="black" d="M899,-346C899,-346 775,-346 775,-346 769,-346 763,-340 763,-334 763,-334 763,-322 763,-322 763,-316 769,-310 775,-310 775,-310 899,-310 899,-310 905,-310 911,-316 911,-322 911,-322 911,-334 911,-334 911,-340 905,-346 899,-346"/>
<text text-anchor="start" x="771" y="-331.6" font-family="DejaVu Sans" font-size="13.00"> </text>
<text text-anchor="start" x="776" y="-331.6" font-family="DejaVu Sans" font-weight="bold" font-size="13.00">RollbackThings</text>
<text text-anchor="start" x="887" y="-331.6" font-family="DejaVu Sans" font-size="13.00"> ✔</text>
<text text-anchor="start" x="781.5" y="-318.6" font-family="DejaVu Sans" font-size="13.00" fill="darkslategrey">⏰CompileThings</text>
</g>
<!-- CompileThings.Compile&#45;&gt;RollbackThings -->
<g id="edge18" class="edge">
<title>CompileThings.Compile&#45;&gt;RollbackThings</title>
<path fill="none" stroke="black" d="M837,-385.69C837,-376.64 837,-365.99 837,-356.37"/>
<polygon fill="black" stroke="black" points="840.5,-356.09 837,-346.09 833.5,-356.09 840.5,-356.09"/>
</g>
<!-- RollbackThings.SendReport -->
<g id="node18" class="node">
<title>RollbackThings.SendReport</title>
<path fill="lightgreen" stroke="lightgreen" d="M925.5,-270C925.5,-270 748.5,-270 748.5,-270 742.5,-270 736.5,-264 736.5,-258 736.5,-258 736.5,-238 736.5,-238 736.5,-232 742.5,-226 748.5,-226 748.5,-226 925.5,-226 925.5,-226 931.5,-226 937.5,-232 937.5,-238 937.5,-238 937.5,-258 937.5,-258 937.5,-264 931.5,-270 925.5,-270"/>
<text text-anchor="start" x="832" y="-257.4" font-family="DejaVu Sans" font-size="12.00">✔</text>
<text text-anchor="start" x="744.5" y="-245.4" font-family="DejaVu Sans" font-weight="bold" font-size="12.00">RollbackThings.SendReport</text>
</g>
<!-- RollbackThings&#45;&gt;RollbackThings.SendReport -->
<!-- RollbackThings.Rollback -->
<g id="node19" class="node">
<title>RollbackThings.Rollback</title>
<path fill="lightgreen" stroke="lightgreen" d="M914,-184C914,-184 760,-184 760,-184 754,-184 748,-178 748,-172 748,-172 748,-152 748,-152 748,-146 754,-140 760,-140 760,-140 914,-140 914,-140 920,-140 926,-146 926,-152 926,-152 926,-172 926,-172 926,-178 920,-184 914,-184"/>
<text text-anchor="start" x="832" y="-171.4" font-family="DejaVu Sans" font-size="12.00">✔</text>
<text text-anchor="start" x="756" y="-159.4" font-family="DejaVu Sans" font-weight="bold" font-size="12.00">RollbackThings.Rollback</text>
</g>
<!-- RollbackThings.SendReport&#45;&gt;RollbackThings.Rollback -->
<g id="edge17" class="edge">
<title>RollbackThings.SendReport&#45;&gt;RollbackThings.Rollback</title>
<path fill="none" stroke="black" d="M837,-225.8C837,-216.25 837,-204.78 837,-194.27"/>
<polygon fill="black" stroke="black" points="840.5,-194.19 837,-184.19 833.5,-194.19 840.5,-194.19"/>
</g>
</g>
</svg>
