<?xml version="1.0" encoding="UTF-8" standalone="no"?>
<!DOCTYPE svg PUBLIC "-//W3C//DTD SVG 1.1//EN"
 "http://www.w3.org/Graphics/SVG/1.1/DTD/svg11.dtd">
<!-- Generated by graphviz version 2.43.0 (0)
 -->
<!-- Title: G Pages: 1 -->
<svg width="974pt" height="606pt"
 viewBox="0.00 0.00 974.00 606.00" xmlns="http://www.w3.org/2000/svg" xmlns:xlink="http://www.w3.org/1999/xlink">
<g id="graph0" class="graph" transform="scale(1 1) rotate(0) translate(4 602)">
<title>G</title>
<polygon fill="white" stroke="transparent" points="-4,4 -4,-602 970,-602 970,4 -4,4"/>
<text text-anchor="start" x="433" y="-22.8" font-family="DejaVu Sans" font-size="14.00"> Plan &#45; Started</text>
<text text-anchor="start" x="239.5" y="-7.8" font-family="DejaVu Sans" font-size="14.00">Plan built at 2023&#45;02&#45;10 11:44:14.903134Definition pathes: [demo1] </text>
<g id="clust1" class="cluster">
<title>cluster_gInitChain</title>
<path fill="none" stroke="lightgrey" d="M258,-458C258,-458 426,-458 426,-458 432,-458 438,-464 438,-470 438,-470 438,-578 438,-578 438,-584 432,-590 426,-590 426,-590 258,-590 258,-590 252,-590 246,-584 246,-578 246,-578 246,-470 246,-470 246,-464 252,-458 258,-458"/>
</g>
<g id="clust2" class="cluster">
<title>cluster_gReorgMariaDB</title>
<path fill="none" stroke="mintcream" d="M462,-218C462,-218 696,-218 696,-218 702,-218 708,-224 708,-230 708,-230 708,-422 708,-422 708,-428 702,-434 696,-434 696,-434 462,-434 462,-434 456,-434 450,-428 450,-422 450,-422 450,-230 450,-230 450,-224 456,-218 462,-218"/>
</g>
<g id="clust3" class="cluster">
<title>cluster_gReorgOldBDs</title>
<path fill="none" stroke="mintcream" d="M20,-46C20,-46 222,-46 222,-46 228,-46 234,-52 234,-58 234,-58 234,-422 234,-422 234,-428 228,-434 222,-434 222,-434 20,-434 20,-434 14,-434 8,-428 8,-422 8,-422 8,-58 8,-58 8,-52 14,-46 20,-46"/>
</g>
<g id="clust4" class="cluster">
<title>cluster_gBackupDBs</title>
<path fill="none" stroke="mintcream" d="M254,-126C254,-126 430,-126 430,-126 436,-126 442,-132 442,-138 442,-138 442,-342 442,-342 442,-348 436,-354 430,-354 430,-354 254,-354 254,-354 248,-354 242,-348 242,-342 242,-342 242,-138 242,-138 242,-132 248,-126 254,-126"/>
</g>
<g id="clust5" class="cluster">
<title>cluster_gCompileThings</title>
<path fill="none" stroke="lightgrey" d="M728,-378C728,-378 946,-378 946,-378 952,-378 958,-384 958,-390 958,-390 958,-578 958,-578 958,-584 952,-590 946,-590 946,-590 728,-590 728,-590 722,-590 716,-584 716,-578 716,-578 716,-390 716,-390 716,-384 722,-378 728,-378"/>
</g>
<g id="clust6" class="cluster">
<title>cluster_gRollbackThings</title>
<path fill="none" stroke="mintcream" d="M740,-132C740,-132 934,-132 934,-132 940,-132 946,-138 946,-144 946,-144 946,-342 946,-342 946,-348 940,-354 934,-354 934,-354 740,-354 740,-354 734,-354 728,-348 728,-342 728,-342 728,-144 728,-144 728,-138 734,-132 740,-132"/>
</g>
<!-- InitChain -->
<g id="node1" class="node">
<title>InitChain</title>
<path fill="none" stroke="black" d="M382.5,-582C382.5,-582 301.5,-582 301.5,-582 295.5,-582 289.5,-576 289.5,-570 289.5,-570 289.5,-558 289.5,-558 289.5,-552 295.5,-546 301.5,-546 301.5,-546 382.5,-546 382.5,-546 388.5,-546 394.5,-552 394.5,-558 394.5,-558 394.5,-570 394.5,-570 394.5,-576 388.5,-582 382.5,-582"/>
<text text-anchor="start" x="297.5" y="-567.6" font-family="DejaVu Sans" font-size="13.00"> </text>
<text text-anchor="start" x="302.5" y="-567.6" font-family="DejaVu Sans" font-weight="bold" font-size="13.00">InitChain</text>
<text text-anchor="start" x="368.5" y="-567.6" font-family="DejaVu Sans" font-size="13.00"> ✨</text>
<text text-anchor="start" x="306" y="-554.6" font-family="DejaVu Sans" font-size="13.00">⏰11:45:40</text>
</g>
<!-- InitChain.UsersCleanUp -->
<g id="node2" class="node">
<title>InitChain.UsersCleanUp</title>
<path fill="lightgrey" stroke="lightgrey" d="M418,-510C418,-510 266,-510 266,-510 260,-510 254,-504 254,-498 254,-498 254,-478 254,-478 254,-472 260,-466 266,-466 266,-466 418,-466 418,-466 424,-466 430,-472 430,-478 430,-478 430,-498 430,-498 430,-504 424,-510 418,-510"/>
<text text-anchor="start" x="335.5" y="-497.4" font-family="DejaVu Sans" font-size="12.00">✨</text>
<text text-anchor="start" x="262" y="-485.4" font-family="DejaVu Sans" font-weight="bold" font-size="12.00">InitChain.UsersCleanUp</text>
</g>
<!-- InitChain&#45;&gt;InitChain.UsersCleanUp -->
<!-- ReorgMariaDB -->
<g id="node3" class="node">
<title>ReorgMariaDB</title>
<path fill="none" stroke="black" d="M615.5,-426C615.5,-426 494.5,-426 494.5,-426 488.5,-426 482.5,-420 482.5,-414 482.5,-414 482.5,-402 482.5,-402 482.5,-396 488.5,-390 494.5,-390 494.5,-390 615.5,-390 615.5,-390 621.5,-390 627.5,-396 627.5,-402 627.5,-402 627.5,-414 627.5,-414 627.5,-420 621.5,-426 615.5,-426"/>
<text text-anchor="start" x="490.5" y="-411.6" font-family="DejaVu Sans" font-size="13.00"> </text>
<text text-anchor="start" x="495.5" y="-411.6" font-family="DejaVu Sans" font-weight="bold" font-size="13.00">ReorgMariaDB</text>
<text text-anchor="start" x="601.5" y="-411.6" font-family="DejaVu Sans" font-size="13.00"> ⏰</text>
<text text-anchor="start" x="519" y="-398.6" font-family="DejaVu Sans" font-size="13.00">⏰InitChain</text>
</g>
<!-- InitChain.UsersCleanUp&#45;&gt;ReorgMariaDB -->
<g id="edge4" class="edge">
<title>InitChain.UsersCleanUp&#45;&gt;ReorgMariaDB</title>
<path fill="none" stroke="black" d="M399.36,-465.99C430.16,-454.72 467.98,-440.87 498.63,-429.64"/>
<polygon fill="black" stroke="black" points="500.12,-432.82 508.31,-426.1 497.71,-426.25 500.12,-432.82"/>
</g>
<!-- ReorgOldBDs -->
<g id="node6" class="node">
<title>ReorgOldBDs</title>
<path fill="none" stroke="black" d="M197,-426C197,-426 85,-426 85,-426 79,-426 73,-420 73,-414 73,-414 73,-402 73,-402 73,-396 79,-390 85,-390 85,-390 197,-390 197,-390 203,-390 209,-396 209,-402 209,-402 209,-414 209,-414 209,-420 203,-426 197,-426"/>
<text text-anchor="start" x="81" y="-411.6" font-family="DejaVu Sans" font-size="13.00"> </text>
<text text-anchor="start" x="86" y="-411.6" font-family="DejaVu Sans" font-weight="bold" font-size="13.00">ReorgOldBDs</text>
<text text-anchor="start" x="183" y="-411.6" font-family="DejaVu Sans" font-size="13.00"> ⏰</text>
<text text-anchor="start" x="105" y="-398.6" font-family="DejaVu Sans" font-size="13.00">⏰InitChain</text>
</g>
<!-- InitChain.UsersCleanUp&#45;&gt;ReorgOldBDs -->
<g id="edge9" class="edge">
<title>InitChain.UsersCleanUp&#45;&gt;ReorgOldBDs</title>
<path fill="none" stroke="black" d="M287.87,-465.99C258.93,-454.77 223.43,-440.99 194.57,-429.79"/>
<polygon fill="black" stroke="black" points="195.65,-426.45 185.06,-426.1 193.12,-432.98 195.65,-426.45"/>
</g>
<!-- BackupDBs -->
<g id="node11" class="node">
<title>BackupDBs</title>
<path fill="none" stroke="black" d="M390.5,-346C390.5,-346 293.5,-346 293.5,-346 287.5,-346 281.5,-340 281.5,-334 281.5,-334 281.5,-322 281.5,-322 281.5,-316 287.5,-310 293.5,-310 293.5,-310 390.5,-310 390.5,-310 396.5,-310 402.5,-316 402.5,-322 402.5,-322 402.5,-334 402.5,-334 402.5,-340 396.5,-346 390.5,-346"/>
<text text-anchor="start" x="289.5" y="-331.6" font-family="DejaVu Sans" font-size="13.00"> </text>
<text text-anchor="start" x="294.5" y="-331.6" font-family="DejaVu Sans" font-weight="bold" font-size="13.00">BackupDBs</text>
<text text-anchor="start" x="376.5" y="-331.6" font-family="DejaVu Sans" font-size="13.00"> ⏰</text>
<text text-anchor="start" x="306" y="-318.6" font-family="DejaVu Sans" font-size="13.00">⏰InitChain</text>
</g>
<!-- InitChain.UsersCleanUp&#45;&gt;BackupDBs -->
<g id="edge13" class="edge">
<title>InitChain.UsersCleanUp&#45;&gt;BackupDBs</title>
<path fill="none" stroke="black" d="M342,-465.69C342,-437.36 342,-387.26 342,-356.22"/>
<polygon fill="black" stroke="black" points="345.5,-356.11 342,-346.11 338.5,-356.11 345.5,-356.11"/>
</g>
<!-- ReorgMariaDB.LogrotateMariaDB -->
<g id="node4" class="node">
<title>ReorgMariaDB.LogrotateMariaDB</title>
<path fill="lightgrey" stroke="lightgrey" d="M688,-350C688,-350 470,-350 470,-350 464,-350 458,-344 458,-338 458,-338 458,-318 458,-318 458,-312 464,-306 470,-306 470,-306 688,-306 688,-306 694,-306 700,-312 700,-318 700,-318 700,-338 700,-338 700,-344 694,-350 688,-350"/>
<text text-anchor="start" x="572.5" y="-337.4" font-family="DejaVu Sans" font-size="12.00">✨</text>
<text text-anchor="start" x="466" y="-325.4" font-family="DejaVu Sans" font-weight="bold" font-size="12.00">ReorgMariaDB.LogrotateMariaDB</text>
</g>
<!-- ReorgMariaDB&#45;&gt;ReorgMariaDB.LogrotateMariaDB -->
<!-- ReorgMariaDB.ReorgMariaDB -->
<g id="node5" class="node">
<title>ReorgMariaDB.ReorgMariaDB</title>
<path fill="lightgrey" stroke="lightgrey" d="M667.5,-270C667.5,-270 476.5,-270 476.5,-270 470.5,-270 464.5,-264 464.5,-258 464.5,-258 464.5,-238 464.5,-238 464.5,-232 470.5,-226 476.5,-226 476.5,-226 667.5,-226 667.5,-226 673.5,-226 679.5,-232 679.5,-238 679.5,-238 679.5,-258 679.5,-258 679.5,-264 673.5,-270 667.5,-270"/>
<text text-anchor="start" x="565.5" y="-257.4" font-family="DejaVu Sans" font-size="12.00">✨</text>
<text text-anchor="start" x="472.5" y="-245.4" font-family="DejaVu Sans" font-weight="bold" font-size="12.00">ReorgMariaDB.ReorgMariaDB</text>
</g>
<!-- ReorgMariaDB.LogrotateMariaDB&#45;&gt;ReorgMariaDB.ReorgMariaDB -->
<g id="edge3" class="edge">
<title>ReorgMariaDB.LogrotateMariaDB&#45;&gt;ReorgMariaDB.ReorgMariaDB</title>
<path fill="none" stroke="black" d="M577.09,-305.69C576.38,-297.8 575.56,-288.68 574.79,-280.1"/>
<polygon fill="black" stroke="black" points="578.27,-279.67 573.89,-270.02 571.29,-280.29 578.27,-279.67"/>
</g>
<!-- BackupDBs.BackupMaria -->
<g id="node13" class="node">
<title>BackupDBs.BackupMaria</title>
<path fill="lightgrey" stroke="lightgrey" d="M421.5,-190C421.5,-190 262.5,-190 262.5,-190 256.5,-190 250.5,-184 250.5,-178 250.5,-178 250.5,-146 250.5,-146 250.5,-140 256.5,-134 262.5,-134 262.5,-134 421.5,-134 421.5,-134 427.5,-134 433.5,-140 433.5,-146 433.5,-146 433.5,-178 433.5,-178 433.5,-184 427.5,-190 421.5,-190"/>
<text text-anchor="start" x="335.5" y="-177.4" font-family="DejaVu Sans" font-size="12.00">✨</text>
<text text-anchor="start" x="258.5" y="-165.4" font-family="DejaVu Sans" font-weight="bold" font-size="12.00">BackupDBs.BackupMaria</text>
<text text-anchor="start" x="293" y="-141.4" font-family="DejaVu Sans" font-size="12.00">⏰ReorgMariaDB</text>
</g>
<!-- ReorgMariaDB.ReorgMariaDB&#45;&gt;BackupDBs.BackupMaria -->
<g id="edge12" class="edge">
<title>ReorgMariaDB.ReorgMariaDB&#45;&gt;BackupDBs.BackupMaria</title>
<path fill="none" stroke="black" d="M514.26,-225.91C487.48,-216.13 455.15,-204.32 425.76,-193.59"/>
<polygon fill="black" stroke="black" points="426.92,-190.29 416.33,-190.15 424.52,-196.86 426.92,-190.29"/>
</g>
<!-- ReorgOldBDs.CloseIndices -->
<g id="node7" class="node">
<title>ReorgOldBDs.CloseIndices</title>
<path fill="lightgrey" stroke="lightgrey" d="M210,-350C210,-350 40,-350 40,-350 34,-350 28,-344 28,-338 28,-338 28,-318 28,-318 28,-312 34,-306 40,-306 40,-306 210,-306 210,-306 216,-306 222,-312 222,-318 222,-318 222,-338 222,-338 222,-344 216,-350 210,-350"/>
<text text-anchor="start" x="118.5" y="-337.4" font-family="DejaVu Sans" font-size="12.00">✨</text>
<text text-anchor="start" x="36" y="-325.4" font-family="DejaVu Sans" font-weight="bold" font-size="12.00">ReorgOldBDs.CloseIndices</text>
</g>
<!-- ReorgOldBDs&#45;&gt;ReorgOldBDs.CloseIndices -->
<!-- ReorgOldBDs.CloseListeners -->
<g id="node8" class="node">
<title>ReorgOldBDs.CloseListeners</title>
<path fill="lightgrey" stroke="lightgrey" d="M213.5,-270C213.5,-270 28.5,-270 28.5,-270 22.5,-270 16.5,-264 16.5,-258 16.5,-258 16.5,-238 16.5,-238 16.5,-232 22.5,-226 28.5,-226 28.5,-226 213.5,-226 213.5,-226 219.5,-226 225.5,-232 225.5,-238 225.5,-238 225.5,-258 225.5,-258 225.5,-264 219.5,-270 213.5,-270"/>
<text text-anchor="start" x="114.5" y="-257.4" font-family="DejaVu Sans" font-size="12.00">✨</text>
<text text-anchor="start" x="24.5" y="-245.4" font-family="DejaVu Sans" font-weight="bold" font-size="12.00">ReorgOldBDs.CloseListeners</text>
</g>
<!-- ReorgOldBDs.CloseIndices&#45;&gt;ReorgOldBDs.CloseListeners -->
<g id="edge6" class="edge">
<title>ReorgOldBDs.CloseIndices&#45;&gt;ReorgOldBDs.CloseListeners</title>
<path fill="none" stroke="black" d="M123.91,-305.69C123.5,-297.8 123.04,-288.68 122.6,-280.1"/>
<polygon fill="black" stroke="black" points="126.09,-279.83 122.08,-270.02 119.09,-280.18 126.09,-279.83"/>
</g>
<!-- ReorgOldBDs.ReorgADDBs -->
<g id="node9" class="node">
<title>ReorgOldBDs.ReorgADDBs</title>
<path fill="lightgrey" stroke="lightgrey" d="M206,-184C206,-184 36,-184 36,-184 30,-184 24,-178 24,-172 24,-172 24,-152 24,-152 24,-146 30,-140 36,-140 36,-140 206,-140 206,-140 212,-140 218,-146 218,-152 218,-152 218,-172 218,-172 218,-178 212,-184 206,-184"/>
<text text-anchor="start" x="114.5" y="-171.4" font-family="DejaVu Sans" font-size="12.00">✨</text>
<text text-anchor="start" x="32" y="-159.4" font-family="DejaVu Sans" font-weight="bold" font-size="12.00">ReorgOldBDs.ReorgADDBs</text>
</g>
<!-- ReorgOldBDs.CloseListeners&#45;&gt;ReorgOldBDs.ReorgADDBs -->
<g id="edge7" class="edge">
<title>ReorgOldBDs.CloseListeners&#45;&gt;ReorgOldBDs.ReorgADDBs</title>
<path fill="none" stroke="black" d="M121,-225.8C121,-216.25 121,-204.78 121,-194.27"/>
<polygon fill="black" stroke="black" points="124.5,-194.19 121,-184.19 117.5,-194.19 124.5,-194.19"/>
</g>
<!-- ReorgOldBDs.RestartEngine -->
<g id="node10" class="node">
<title>ReorgOldBDs.RestartEngine</title>
<path fill="lightgrey" stroke="lightgrey" d="M212,-98C212,-98 30,-98 30,-98 24,-98 18,-92 18,-86 18,-86 18,-66 18,-66 18,-60 24,-54 30,-54 30,-54 212,-54 212,-54 218,-54 224,-60 224,-66 224,-66 224,-86 224,-86 224,-92 218,-98 212,-98"/>
<text text-anchor="start" x="114.5" y="-85.4" font-family="DejaVu Sans" font-size="12.00">✨</text>
<text text-anchor="start" x="26" y="-73.4" font-family="DejaVu Sans" font-weight="bold" font-size="12.00">ReorgOldBDs.RestartEngine</text>
</g>
<!-- ReorgOldBDs.ReorgADDBs&#45;&gt;ReorgOldBDs.RestartEngine -->
<g id="edge8" class="edge">
<title>ReorgOldBDs.ReorgADDBs&#45;&gt;ReorgOldBDs.RestartEngine</title>
<path fill="none" stroke="black" d="M121,-139.8C121,-130.25 121,-118.78 121,-108.27"/>
<polygon fill="black" stroke="black" points="124.5,-108.19 121,-98.19 117.5,-108.19 124.5,-108.19"/>
</g>
<!-- BackupDBs.BackupPg -->
<g id="node12" class="node">
<title>BackupDBs.BackupPg</title>
<path fill="lightgrey" stroke="lightgrey" d="M411,-270C411,-270 273,-270 273,-270 267,-270 261,-264 261,-258 261,-258 261,-238 261,-238 261,-232 267,-226 273,-226 273,-226 411,-226 411,-226 417,-226 423,-232 423,-238 423,-238 423,-258 423,-258 423,-264 417,-270 411,-270"/>
<text text-anchor="start" x="335.5" y="-257.4" font-family="DejaVu Sans" font-size="12.00">✨</text>
<text text-anchor="start" x="269" y="-245.4" font-family="DejaVu Sans" font-weight="bold" font-size="12.00">BackupDBs.BackupPg</text>
</g>
<!-- BackupDBs&#45;&gt;BackupDBs.BackupPg -->
<!-- BackupDBs.BackupPg&#45;&gt;BackupDBs.BackupMaria -->
<g id="edge11" class="edge">
<title>BackupDBs.BackupPg&#45;&gt;BackupDBs.BackupMaria</title>
<path fill="none" stroke="black" d="M342,-225.8C342,-218.05 342,-209.03 342,-200.28"/>
<polygon fill="black" stroke="black" points="345.5,-200.24 342,-190.24 338.5,-200.24 345.5,-200.24"/>
</g>
<!-- CompileThings -->
<g id="node14" class="node">
<title>CompileThings</title>
<path fill="none" stroke="black" d="M898.5,-582C898.5,-582 775.5,-582 775.5,-582 769.5,-582 763.5,-576 763.5,-570 763.5,-570 763.5,-558 763.5,-558 763.5,-552 769.5,-546 775.5,-546 775.5,-546 898.5,-546 898.5,-546 904.5,-546 910.5,-552 910.5,-558 910.5,-558 910.5,-570 910.5,-570 910.5,-576 904.5,-582 898.5,-582"/>
<text text-anchor="start" x="771.5" y="-567.6" font-family="DejaVu Sans" font-size="13.00"> </text>
<text text-anchor="start" x="776.5" y="-567.6" font-family="DejaVu Sans" font-weight="bold" font-size="13.00">CompileThings</text>
<text text-anchor="start" x="884.5" y="-567.6" font-family="DejaVu Sans" font-size="13.00"> ✨</text>
<text text-anchor="start" x="801" y="-554.6" font-family="DejaVu Sans" font-size="13.00">⏰11:45:00</text>
</g>
<!-- CompileThings.GetNewRelease -->
<g id="node15" class="node">
<title>CompileThings.GetNewRelease</title>
<path fill="lightgrey" stroke="lightgrey" d="M938,-510C938,-510 736,-510 736,-510 730,-510 724,-504 724,-498 724,-498 724,-478 724,-478 724,-472 730,-466 736,-466 736,-466 938,-466 938,-466 944,-466 950,-472 950,-478 950,-478 950,-498 950,-498 950,-504 944,-510 938,-510"/>
<text text-anchor="start" x="830.5" y="-497.4" font-family="DejaVu Sans" font-size="12.00">✨</text>
<text text-anchor="start" x="732" y="-485.4" font-family="DejaVu Sans" font-weight="bold" font-size="12.00">CompileThings.GetNewRelease</text>
</g>
<!-- CompileThings&#45;&gt;CompileThings.GetNewRelease -->
<!-- CompileThings.Compile -->
<g id="node16" class="node">
<title>CompileThings.Compile</title>
<path fill="lightgrey" stroke="lightgrey" d="M911.5,-430C911.5,-430 762.5,-430 762.5,-430 756.5,-430 750.5,-424 750.5,-418 750.5,-418 750.5,-398 750.5,-398 750.5,-392 756.5,-386 762.5,-386 762.5,-386 911.5,-386 911.5,-386 917.5,-386 923.5,-392 923.5,-398 923.5,-398 923.5,-418 923.5,-418 923.5,-424 917.5,-430 911.5,-430"/>
<text text-anchor="start" x="830.5" y="-417.4" font-family="DejaVu Sans" font-size="12.00">✨</text>
<text text-anchor="start" x="758.5" y="-405.4" font-family="DejaVu Sans" font-weight="bold" font-size="12.00">CompileThings.Compile</text>
</g>
<!-- CompileThings.GetNewRelease&#45;&gt;CompileThings.Compile -->
<g id="edge15" class="edge">
<title>CompileThings.GetNewRelease&#45;&gt;CompileThings.Compile</title>
<path fill="none" stroke="black" d="M837,-465.69C837,-457.8 837,-448.68 837,-440.1"/>
<polygon fill="black" stroke="black" points="840.5,-440.02 837,-430.02 833.5,-440.02 840.5,-440.02"/>
</g>
<!-- RollbackThings -->
<g id="node17" class="node">
<title>RollbackThings</title>
<path fill="none" stroke="black" d="M900,-346C900,-346 774,-346 774,-346 768,-346 762,-340 762,-334 762,-334 762,-322 762,-322 762,-316 768,-310 774,-310 774,-310 900,-310 900,-310 906,-310 912,-316 912,-322 912,-322 912,-334 912,-334 912,-340 906,-346 900,-346"/>
<text text-anchor="start" x="770" y="-331.6" font-family="DejaVu Sans" font-size="13.00"> </text>
<text text-anchor="start" x="775" y="-331.6" font-family="DejaVu Sans" font-weight="bold" font-size="13.00">RollbackThings</text>
<text text-anchor="start" x="886" y="-331.6" font-family="DejaVu Sans" font-size="13.00"> ⏰</text>
<text text-anchor="start" x="781.5" y="-318.6" font-family="DejaVu Sans" font-size="13.00">⏰CompileThings</text>
</g>
<!-- CompileThings.Compile&#45;&gt;RollbackThings -->
<g id="edge18" class="edge">
<title>CompileThings.Compile&#45;&gt;RollbackThings</title>
<path fill="none" stroke="black" d="M837,-385.69C837,-376.64 837,-365.99 837,-356.37"/>
<polygon fill="black" stroke="black" points="840.5,-356.09 837,-346.09 833.5,-356.09 840.5,-356.09"/>
</g>
<!-- RollbackThings.SendReport -->
<g id="node18" class="node">
<title>RollbackThings.SendReport</title>
<path fill="lightgrey" stroke="lightgrey" d="M925.5,-270C925.5,-270 748.5,-270 748.5,-270 742.5,-270 736.5,-264 736.5,-258 736.5,-258 736.5,-238 736.5,-238 736.5,-232 742.5,-226 748.5,-226 748.5,-226 925.5,-226 925.5,-226 931.5,-226 937.5,-232 937.5,-238 937.5,-238 937.5,-258 937.5,-258 937.5,-264 931.5,-270 925.5,-270"/>
<text text-anchor="start" x="830.5" y="-257.4" font-family="DejaVu Sans" font-size="12.00">✨</text>
<text text-anchor="start" x="744.5" y="-245.4" font-family="DejaVu Sans" font-weight="bold" font-size="12.00">RollbackThings.SendReport</text>
</g>
<!-- RollbackThings&#45;&gt;RollbackThings.SendReport -->
<!-- RollbackThings.Rollback -->
<g id="node19" class="node">
<title>RollbackThings.Rollback</title>
<path fill="lightgrey" stroke="lightgrey" d="M914,-184C914,-184 760,-184 760,-184 754,-184 748,-178 748,-172 748,-172 748,-152 748,-152 748,-146 754,-140 760,-140 760,-140 914,-140 914,-140 920,-140 926,-146 926,-152 926,-152 926,-172 926,-172 926,-178 920,-184 914,-184"/>
<text text-anchor="start" x="830.5" y="-171.4" font-family="DejaVu Sans" font-size="12.00">✨</text>
<text text-anchor="start" x="756" y="-159.4" font-family="DejaVu Sans" font-weight="bold" font-size="12.00">RollbackThings.Rollback</text>
</g>
<!-- RollbackThings.SendReport&#45;&gt;RollbackThings.Rollback -->
<g id="edge17" class="edge">
<title>RollbackThings.SendReport&#45;&gt;RollbackThings.Rollback</title>
<path fill="none" stroke="black" d="M837,-225.8C837,-216.25 837,-204.78 837,-194.27"/>
<polygon fill="black" stroke="black" points="840.5,-194.19 837,-184.19 833.5,-194.19 840.5,-194.19"/>
</g>
</g>
</svg>
